<?xml version="1.0" standalone="no"?>
<!DOCTYPE svg PUBLIC "-//W3C//DTD SVG 20010904//EN"
 "http://www.w3.org/TR/2001/REC-SVG-20010904/DTD/svg10.dtd">
<svg version="1.0" xmlns="http://www.w3.org/2000/svg"
 width="114.000000pt" height="259.000000pt" viewBox="0 0 114.000000 259.000000"
 preserveAspectRatio="xMidYMid meet">

<g transform="translate(0.000000,259.000000) scale(0.100000,-0.100000)"
fill="#000000" stroke="none">
<path d="M542 2498 c-16 -46 -47 -134 -68 -195 l-38 -113 -213 0 c-130 0 -213
-4 -213 -10 0 -5 76 -64 170 -130 l169 -120 -69 -202 c-38 -111 -68 -203 -66
-206 6 -5 132 81 216 146 l65 51 3 -67 c2 -37 1 -112 -3 -167 l-7 -100 -96
-55 -97 -55 -13 -120 c-49 -447 -118 -1141 -115 -1147 5 -10 87 29 247 116 77
42 144 76 148 76 5 0 89 -43 187 -95 98 -52 186 -95 196 -95 14 0 16 7 11 48
-3 26 -31 301 -61 612 -31 311 -58 575 -60 586 -3 14 -36 40 -96 75 -57 33
-95 63 -100 77 -5 13 -9 89 -9 169 l0 145 28 -17 c15 -10 78 -56 140 -102 65
-48 112 -77 112 -69 0 8 -25 95 -55 193 -30 98 -55 185 -55 193 0 8 72 69 160
135 88 66 160 123 160 127 0 4 -93 9 -207 10 l-206 3 -13 40 c-77 246 -107
336 -114 340 -4 3 -21 -32 -38 -77z"/>
</g>
</svg>
