<?xml version="1.0" standalone="no"?>
<!DOCTYPE svg PUBLIC "-//W3C//DTD SVG 20010904//EN"
 "http://www.w3.org/TR/2001/REC-SVG-20010904/DTD/svg10.dtd">
<svg version="1.0" xmlns="http://www.w3.org/2000/svg"
 width="259.000000pt" height="114.000000pt" viewBox="0 0 259.000000 114.000000"
 preserveAspectRatio="xMidYMid meet">

<g transform="translate(0.000000,114.000000) scale(0.100000,-0.100000)"
fill="#000000" stroke="none">
<path d="M398 913 l-3 -207 -165 -51 c-91 -29 -178 -58 -195 -65 l-30 -12 40
-17 c22 -10 111 -42 198 -71 l157 -54 0 -213 c0 -130 4 -213 10 -213 5 0 64
76 130 170 l120 169 202 -69 c111 -38 203 -68 206 -66 5 6 -81 132 -146 216
l-51 65 67 3 c37 2 112 1 167 -3 l100 -7 55 -96 55 -97 120 -13 c447 -49 1141
-118 1147 -115 10 5 -29 87 -116 247 -42 77 -76 144 -76 148 0 5 43 89 95 187
52 98 95 186 95 196 0 14 -7 16 -47 11 -27 -3 -302 -31 -613 -61 -311 -31
-575 -58 -586 -60 -14 -3 -40 -36 -75 -96 -33 -57 -63 -95 -77 -100 -13 -5
-89 -9 -169 -9 l-145 0 17 28 c10 15 56 78 102 140 48 65 77 112 69 112 -8 0
-95 -25 -193 -55 -98 -30 -185 -55 -193 -55 -8 0 -69 72 -135 160 -66 88 -123
160 -127 160 -4 0 -9 -93 -10 -207z"/>
</g>
</svg>
